<svg width="32" height="32" xmlns="http://www.w3.org/2000/svg"><g fill="none" fill-rule="evenodd"><path d="M10.033 23.797l-4.23-4.97H4.006V26.6H5.75v-4.917L9.927 26.6h1.797v-7.771h-1.691v4.97zm16.706-4.97l-1.164 4.97-1.215-4.97h-1.64l-1.215 4.917-1.11-4.916H18.49l2.01 7.718h1.797l1.163-4.916 1.216 4.916h1.744v-.053l2.01-7.665h-1.692zM3.847 28.979c0-.687.529-1.269 1.216-1.269.423 0 .687.106.899.317l-.264.318c-.212-.159-.37-.265-.688-.265-.423 0-.793.37-.793.846s.318.846.793.846c.212 0 .423-.053.582-.159v-.423h-.529v-.37h1.005v1.005c-.212.211-.582.37-1.005.37-.74 0-1.216-.529-1.216-1.216zm2.485 0c0-.687.529-1.269 1.269-1.269.74 0 1.269.582 1.269 1.216 0 .687-.53 1.216-1.27 1.216a1.169 1.169 0 0 1-1.268-1.163zm2.062 0c0-.476-.317-.846-.793-.846-.476 0-.793.37-.793.846s.317.846.793.846c.476 0 .793-.423.793-.846zm.423-1.216h.476l.687 1.85.74-1.85h.423l-.952 2.38h-.37l-1.004-2.38zm2.643 0h1.745v.37h-1.322v.635h1.216v.37h-1.216v.634h1.375v.37H11.46v-2.379zm2.22 0h1.058c.317 0 .528.106.687.264a.808.808 0 0 1 .212.53c0 .37-.212.633-.582.74l.634.898h-.475l-.582-.846h-.529v.846h-.423v-2.432zm1.005 1.163c.317 0 .476-.158.476-.423 0-.264-.159-.423-.476-.423h-.634v.793h.634v.053zm1.322-1.163h.37l1.268 1.639v-1.639h.423v2.38h-.37l-1.321-1.693v1.692h-.37v-2.379zm2.484 0h.476l.74 1.11.688-1.11h.475v2.38h-.423V28.45l-.74 1.11h-.053l-.74-1.11v1.692h-.423v-2.379zm2.75 0h1.797v.37h-1.375v.635h1.216v.37h-1.216v.634h1.375v.37H21.24v-2.379zm2.22 0h.423l1.269 1.639v-1.639h.422v2.38h-.37l-1.321-1.693v1.692h-.423v-2.379zm3.172.37h-.74v-.37h1.956v.37h-.793v2.01h-.423v-2.01zm-14.38-2.643l1.005-1.216c.687.581 1.427.951 2.326.951.687 0 1.11-.264 1.11-.74 0-.423-.264-.687-1.586-1.004-1.586-.423-2.59-.846-2.59-2.38 0-1.427 1.162-2.378 2.748-2.378 1.164 0 2.115.37 2.908 1.004l-.899 1.322c-.687-.476-1.374-.793-2.061-.793-.688 0-1.005.317-1.005.687 0 .529.317.688 1.692 1.058 1.586.423 2.485 1.004 2.485 2.379 0 1.586-1.216 2.431-2.908 2.431a5.243 5.243 0 0 1-3.225-1.321z" fill="#002664"/><path d="M11.724 6.298c-.105 0-.158.106-.158.212 0 0 0 .105-.053.317-.053.158-.106.423-.159.846a17.401 17.401 0 0 0-.211 2.696c0 1.322.158 2.485.476 3.436.581 1.798 2.273 2.644 3.277 2.644.212 0 .423-.053.53-.106.105-.053.158-.053.263-.159-.052-.105-.158-.211-.211-.317-.212-.423-.317-.899-.317-1.533 0-.74.158-1.639.476-2.643 0-.106.052-.159.105-.265 0-.053 0-.053.053-.105-1.057-2.644-3.542-4.653-3.806-4.864a.656.656 0 0 1-.159-.106s-.053-.053-.106-.053m4.335-4.335c-.052 0-.105.053-.158.159 0 0-.053.053-.159.211-.105.212-.264.423-.37.635-.264.475-.687 1.216-1.057 2.167a80.084 80.084 0 0 0-.793 2.01c.793.792 1.85 2.008 2.59 3.541.529-1.163 1.375-2.326 2.485-3.49a23.694 23.694 0 0 0-2.22-4.81c-.106-.159-.159-.211-.159-.211-.106-.212-.159-.212-.159-.212m7.825 2.168c-.053 0-.106 0-.159.053 0 0-.053.052-.211.105-.159.053-.318.159-.529.265l-.106.052c-.687.318-1.374.74-2.062 1.11-.052.054-.158.106-.211.16.211.105.37.316.423.58.106.477.423 2.063.423 3.966 0 1.374-.159 2.59-.476 3.595-.317 1.11-.952 1.797-1.533 2.167 1.374-.053 2.643-.951 3.49-2.484 1.162-2.01 1.427-4.706 1.427-6.556 0-.634-.053-1.322-.106-1.956-.053-.476-.106-.74-.106-.74 0-.212-.053-.317-.264-.317m-3.807-1.586h-.053c-.052 0-.105 0-.105.053l-.793.528c-.265.212-.688.476-1.163.899.37.74.687 1.533.951 2.326a14.84 14.84 0 0 1 2.01-1.374c-.212-1.058-.477-1.904-.53-2.168-.105-.159-.21-.264-.317-.264m-8.088 0c-.106 0-.212.105-.265.211-.105.317-.317 1.11-.528 2.168.74.475 1.427.898 2.009 1.374.264-.74.581-1.533 1.004-2.326-.423-.317-.793-.634-1.163-.899l-.793-.528c-.053-.053-.106-.053-.106-.053-.105.053-.105.053-.158.053M5.222 7.62h-.635c-.158 0-.317.106-.423.264-.052.106-.105.212-.105.317.053.265.211 1.27 1.427 2.802.635-.317 1.216-.581 1.85-.793-.105-.74-.211-1.586-.211-2.484-.74-.053-1.322-.106-1.692-.106h-.211m21.622 0h-.211c-.37 0-.952 0-1.692.106 0 .845-.106 1.691-.211 2.484a17.85 17.85 0 0 1 1.85.793c1.216-1.533 1.374-2.537 1.427-2.802 0-.105-.053-.264-.105-.317-.106-.158-.265-.211-.423-.264h-.635m-2.22 3.119c-.264 1.269-.635 2.326-1.163 3.225-.529.951-1.216 1.692-2.01 2.115 5.763-.318 7.402-2.168 7.56-2.38.054-.105.107-.158.107-.264a.48.48 0 0 0-.212-.423s-.053-.053-.211-.105c-.106-.053-.212-.16-.37-.265-.053-.053-.106-.053-.16-.106-.422-.264-1.056-.687-1.902-1.057-.529-.317-1.11-.529-1.64-.74zm-17.182 0c-1.956.74-3.489 1.745-4.07 2.168l-.212.105c-.106.106-.211.265-.211.423 0 .106.052.212.105.265 0 0 0 .052.053.052v.053c.053.053.106.159.264.265.265.211.688.528 1.375.845 1.427.635 3.436 1.058 5.815 1.216-.793-.475-1.48-1.216-2.009-2.167-.475-.899-.845-2.01-1.11-3.225zm16.442 5.815c-.317 0-.74.053-1.375.159-.106 0-.211 0-.317.053-.264.053-.634.053-1.11.053h-1.903c-.688 0-1.64.053-2.432.264-.053 0-.053.053-.053.106 0 0 .053.053.106.053h.052c.318-.053.635-.053.9-.053 1.057 0 1.744.158 2.484.37.634.158 1.269.317 2.115.317.898 0 1.638-.211 1.956-.529a.48.48 0 0 0 .158-.37c-.105-.317-.158-.423-.581-.423zm-15.702 0c-.423 0-.475.106-.475.37a.98.98 0 0 0 .105.37c.317.318 1.058.53 1.956.53.846 0 1.48-.16 2.115-.318.687-.159 1.427-.37 2.485-.37.264 0 .581 0 .898.053h.053c.053 0 .106 0 .106-.053s0-.053-.053-.106c-.793-.211-1.692-.264-2.432-.264h-1.903c-.476 0-.846 0-1.11-.053-.106 0-.212-.053-.317-.053-.688-.053-1.163-.106-1.428-.106zm0-12.423c-.158 0-.264.105-.317.264 0 0-.053.264-.106.74-.052.423-.105 1.11-.105 1.956 0 1.85.264 4.494 1.427 6.556.899 1.533 2.168 2.432 3.542 2.484-.529-.423-1.216-1.11-1.533-2.167-.317-1.005-.476-2.22-.476-3.595 0-1.903.317-3.49.423-3.965a.819.819 0 0 1 .423-.582c-1.427-.898-2.643-1.48-2.908-1.586a.579.579 0 0 1-.211-.105h-.159zm12.16 2.167c-.053 0-.053 0-.106.053l-.106.106c-.106.053-.211.158-.37.317-.211.211-.634.582-1.163 1.163-.793.899-1.85 2.326-2.379 3.965a7.874 7.874 0 0 0-.423 2.485c0 .528.053.951.264 1.269.16.317.37.581.74.74.16.053.318.105.53.105 1.004 0 2.59-.793 3.171-2.643.317-1.004.476-2.115.476-3.436 0-1.64-.211-3.014-.317-3.542-.053-.212-.053-.317-.053-.317-.106-.16-.159-.265-.264-.265z" fill="#D7153A"/></g></svg>