<?xml version="1.0" encoding="utf-8"?>
<!-- Generator: Adobe Illustrator 16.0.0, SVG Export Plug-In . SVG Version: 6.00 Build 0)  -->
<!DOCTYPE svg PUBLIC "-//W3C//DTD SVG 1.1//EN" "http://www.w3.org/Graphics/SVG/1.1/DTD/svg11.dtd">
<svg version="1.1" id="Layer_1" xmlns="http://www.w3.org/2000/svg" xmlns:xlink="http://www.w3.org/1999/xlink" x="0px" y="0px"
	 width="674.286px" height="105.715px" viewBox="0 0 674.286 105.715" style="enable-background:new 0 0 674.286 105.715;"
	 xml:space="preserve">
<symbol  id="Home" viewBox="-34.731 -31.834 69.462 63.667">
	<path style="fill:#D7153A;" d="M34.731,5.319l-12.598,9.616v15.908h-9v-9.038L0,31.833l-34.73-26.512l5.461-7.155l3.742,2.856
		v-32.856H25.53V1.021l3.74-2.854L34.731,5.319z M20.53-26.834H9v19H-8.999v-19h-11.529V4.204L0.001,19.88L20.53,4.204V-26.834z"/>
</symbol>
<use xlink:href="#Home"  width="69.462" height="63.667" id="XMLID_1_" x="-34.731" y="-31.834" transform="matrix(1 0 0 -1 47.396 49.6904)" style="overflow:visible;"/>
<g>
</g>
<rect x="309.429" y="9.286" style="fill:#002664;" width="356" height="90"/>
<g>
	<rect x="87" y="27.786" style="fill:none;" width="626" height="131"/>
	<path d="M88.8,80.779l22.502-51.18h10.651l22.502,51.18h-12.076l-4.8-11.397h-22.202l-4.801,11.397H88.8z M109.502,59.509h13.952
		l-6.976-16.479L109.502,59.509z"/>
	<path d="M151.356,80.779V41.868h11.401v7.84c2.6-5.953,6.875-8.808,12.826-8.566v11.543h-0.6c-3.9,0-6.914,1.15-9.038,3.448
		c-2.126,2.3-3.188,5.724-3.188,10.272v14.374H151.356z"/>
	<path d="M216.875,75.771c-4.176,3.92-9.364,5.88-15.564,5.88c-6.201,0-11.363-1.947-15.489-5.844
		c-4.125-3.896-6.188-8.65-6.188-14.266v-0.145c0-5.663,2.087-10.454,6.263-14.374c4.174-3.921,9.363-5.881,15.564-5.881
		c6.2,0,11.363,1.949,15.489,5.845s6.188,8.651,6.188,14.265v0.146C223.138,67.059,221.049,71.85,216.875,75.771z M201.461,72.141
		c3.15,0,5.675-1.017,7.576-3.049c1.9-2.033,2.85-4.549,2.85-7.551v-0.145c0-2.952-0.988-5.481-2.963-7.587
		c-1.976-2.104-4.513-3.157-7.613-3.157c-3.15,0-5.676,1.016-7.576,3.049c-1.901,2.032-2.85,4.55-2.85,7.55v0.146
		c0,2.952,0.987,5.48,2.963,7.586C195.822,71.088,198.36,72.141,201.461,72.141z"/>
	<path d="M231.388,80.779V41.868h11.401v7.84c2.6-5.953,6.875-8.808,12.826-8.566v11.543h-0.6c-3.9,0-6.914,1.15-9.038,3.448
		c-2.126,2.3-3.188,5.724-3.188,10.272v14.374H231.388z"/>
	<path d="M272.267,81.505c-3.951,0-7.238-1.053-9.863-3.157c-2.625-2.105-3.938-5.021-3.938-8.748v-0.146
		c0-4.113,1.463-7.211,4.388-9.292c2.925-2.08,6.863-3.122,11.813-3.122c3.35,0,6.625,0.533,9.826,1.598v-0.653
		c0-4.743-2.876-7.114-8.625-7.114c-3.451,0-7.151,0.702-11.101,2.104l-2.851-8.421c4.9-2.08,10.101-3.121,15.602-3.121
		c6.05,0,10.576,1.451,13.577,4.355c2.899,2.808,4.35,6.945,4.35,12.414v22.577h-11.026v-4.211
		C281.367,79.86,277.317,81.505,272.267,81.505z M275.717,73.883c2.649,0,4.8-0.641,6.45-1.924c1.65-1.282,2.476-2.915,2.476-4.9
		v-1.96c-2.151-0.968-4.576-1.452-7.276-1.452c-2.451,0-4.376,0.461-5.775,1.38c-1.401,0.92-2.101,2.25-2.101,3.992v0.146
		c0,1.452,0.575,2.602,1.726,3.448C272.366,73.46,273.867,73.883,275.717,73.883z"/>
	<path style="fill:#FFFFFF;" d="M328.971,80.779V29.962h24.002c6.65,0,11.75,1.719,15.302,5.154c3,2.904,4.5,6.776,4.5,11.615v0.146
		c0,7.793-3.75,13.044-11.251,15.753l12.827,18.149h-13.501l-11.251-16.262h-9.076v16.262H328.971z M340.522,54.645h11.701
		c2.75,0,4.913-0.653,6.488-1.96s2.363-3.049,2.363-5.227v-0.146c0-2.371-0.801-4.174-2.4-5.408
		c-1.601-1.234-3.825-1.852-6.676-1.852h-11.476V54.645z"/>
	<path style="fill:#FFFFFF;" d="M400.303,81.65c-6.102,0-11.127-1.875-15.077-5.626c-3.951-3.75-5.925-8.578-5.925-14.483v-0.145
		c0-5.663,1.875-10.454,5.625-14.374c3.75-3.921,8.5-5.881,14.251-5.881c6.35,0,11.201,2.033,14.551,6.099
		c3.35,4.065,5.025,9.074,5.025,15.027c0,0.58-0.05,1.549-0.15,2.903h-27.978c0.549,2.469,1.675,4.356,3.375,5.663
		c1.7,1.307,3.85,1.96,6.451,1.96c3.55,0,6.8-1.331,9.751-3.993l6.526,5.59C412.679,79.231,407.203,81.65,400.303,81.65z
		 M390.477,58.274h17.177c-0.35-2.516-1.263-4.524-2.738-6.025c-1.476-1.499-3.388-2.25-5.738-2.25
		c-2.301,0-4.213,0.738-5.738,2.214C391.914,53.689,390.927,55.71,390.477,58.274z"/>
	<path style="fill:#FFFFFF;" d="M438.63,81.505c-3.951,0-7.238-1.053-9.863-3.157c-2.625-2.105-3.938-5.021-3.938-8.748v-0.146
		c0-4.113,1.463-7.211,4.388-9.292c2.925-2.08,6.863-3.122,11.813-3.122c3.35,0,6.625,0.533,9.826,1.598v-0.653
		c0-4.743-2.876-7.114-8.625-7.114c-3.451,0-7.151,0.702-11.101,2.104l-2.851-8.421c4.9-2.08,10.101-3.121,15.602-3.121
		c6.05,0,10.576,1.451,13.576,4.355c2.899,2.808,4.351,6.945,4.351,12.414v22.577h-11.026v-4.211
		C447.731,79.86,443.681,81.505,438.63,81.505z M442.081,73.883c2.649,0,4.8-0.641,6.45-1.924c1.65-1.282,2.476-2.915,2.476-4.9
		v-1.96c-2.15-0.968-4.575-1.452-7.276-1.452c-2.451,0-4.376,0.461-5.775,1.38c-1.401,0.92-2.101,2.25-2.101,3.992v0.146
		c0,1.452,0.575,2.602,1.726,3.448C438.73,73.46,440.23,73.883,442.081,73.883z"/>
	<path style="fill:#FFFFFF;" d="M472.159,80.779V27.784h11.4v52.995H472.159z"/>
	<path style="fill:#FFFFFF;" d="M507.861,81.433c-3.75,0-6.638-0.883-8.663-2.649s-3.038-4.779-3.038-9.038V51.306h-4.801v-9.438
		h4.801v-9.946h11.401v9.946h9.451v9.438h-9.451V67.93c0,2.518,1.225,3.775,3.675,3.775c2,0,3.875-0.46,5.626-1.38v8.857
		C514.262,80.683,511.262,81.433,507.861,81.433z"/>
	<path style="fill:#FFFFFF;" d="M543.339,81.65c-6.102,0-11.127-1.875-15.076-5.626c-3.951-3.75-5.926-8.578-5.926-14.483v-0.145
		c0-5.663,1.875-10.454,5.625-14.374c3.751-3.921,8.501-5.881,14.252-5.881c6.35,0,11.2,2.033,14.551,6.099
		c3.35,4.065,5.026,9.074,5.026,15.027c0,0.58-0.051,1.549-0.15,2.903h-27.978c0.55,2.469,1.675,4.356,3.375,5.663
		c1.699,1.307,3.851,1.96,6.451,1.96c3.55,0,6.8-1.331,9.751-3.993l6.525,5.59C555.715,79.231,550.239,81.65,543.339,81.65z
		 M533.513,58.274h17.177c-0.351-2.516-1.264-4.524-2.737-6.025c-1.476-1.499-3.389-2.25-5.738-2.25
		c-2.301,0-4.214,0.738-5.738,2.214C534.95,53.689,533.963,55.71,533.513,58.274z"/>
	<path style="fill:#FFFFFF;" d="M589.242,81.65c-6,0-10.988-1.947-14.964-5.844c-3.976-3.896-5.963-8.65-5.963-14.266v-0.145
		c0-5.614,1.999-10.393,6-14.338c4-3.944,9.026-5.917,15.077-5.917c6.7,0,12.05,2.178,16.052,6.534l-6.977,7.26
		c-2.801-2.855-5.851-4.283-9.15-4.283c-2.801,0-5.126,1.041-6.976,3.121c-1.851,2.082-2.775,4.573-2.775,7.478v0.146
		c0,3.049,0.938,5.603,2.813,7.658c1.875,2.058,4.338,3.086,7.389,3.086c3.15,0,6.226-1.38,9.226-4.139l6.676,6.534
		c-2.201,2.323-4.551,4.09-7.051,5.3C596.117,81.045,592.993,81.65,589.242,81.65z"/>
	<path style="fill:#FFFFFF;" d="M613.095,80.779V27.784h11.401v19.601c3.35-4.161,7.275-6.243,11.775-6.243
		c4.301,0,7.651,1.283,10.052,3.848c2.399,2.566,3.6,6.099,3.6,10.6v25.19h-11.4V59.073c0-2.564-0.601-4.525-1.801-5.881
		c-1.2-1.354-2.9-2.032-5.101-2.032s-3.938,0.679-5.213,2.032c-1.275,1.355-1.912,3.316-1.912,5.881v21.706H613.095z"/>
</g>
<g>
</g>
<g>
</g>
<g>
</g>
<g>
</g>
<g>
</g>
<g>
</g>
<g>
</g>
<g>
</g>
<g>
</g>
<g>
</g>
<g>
</g>
<g>
</g>
<g>
</g>
<g>
</g>
<g>
</g>
<g>
</g>
<g>
</g>
</svg>
